<?xml version="1.0" encoding="utf-8"?>
<!-- Svg Vector Icons : http://www.onlinewebfonts.com/icon -->
<!DOCTYPE svg PUBLIC "-//W3C//DTD SVG 1.1//EN" "http://www.w3.org/Graphics/SVG/1.1/DTD/svg11.dtd">
<svg version="1.1" xmlns="http://www.w3.org/2000/svg" xmlns:xlink="http://www.w3.org/1999/xlink" x="0px" y="0px" viewBox="0 0 1000 1000" enable-background="new 0 0 1000 1000" xml:space="preserve">
<metadata> Svg Vector Icons : http://www.onlinewebfonts.com/icon </metadata>
<g><g transform="translate(0.000000,511.000000) scale(0.100000,-0.100000)"><path d="M534.7,4372.1C348.9,4305.1,247.4,4215,153.5,4035c-65.1-124.5-63.2-371.7,1.9-507.7c59.4-120.7,174.3-237.6,297-297l95.8-47.9h4454.4H9457l95.8,47.9c122.6,59.4,237.6,174.4,297,297c67.1,137.9,67.1,379.3,0,517.3c-59.4,122.6-174.3,237.6-297,297l-95.8,47.9l-4425.6,3.8C1421.8,4397.1,592.2,4393.2,534.7,4372.1z"/><path d="M567.3,1929.4c-172.4-42.2-304.6-147.5-394.7-312.3c-59.4-109.2-65.1-134.1-65.1-283.5c0-151.3,5.7-172.4,69-287.4c44.1-82.4,99.6-149.4,160.9-195.4c182-137.9,63.2-132.2,2251.1-126.4l1963.8,5.7l95.8,47.9c122.6,59.4,237.6,174.3,297,297c38.3,78.5,47.9,124.5,47.9,258.6c0,149.4-5.7,172.4-65.1,283.5c-70.9,132.2-151.4,208.8-289.3,275.9l-86.2,44.1l-1963.8,3.8C1508,1940.9,599.9,1937.1,567.3,1929.4z"/><path d="M519.4-538.2c-270.1-93.9-438.7-348.7-417.7-624.6c19.2-220.3,151.4-413.8,350.6-511.5l95.8-47.9h4454.4H9457l95.8,47.9c122.6,59.4,237.6,174.3,297,297c67.1,137.9,67.1,379.3,0,517.3c-59.4,122.6-174.3,237.6-297,297l-95.8,47.9l-4425.6,3.8C1044.4-507.6,598-509.5,519.4-538.2z"/><path d="M519.4-2990.5c-270.1-93.9-438.7-348.7-417.7-624.6c19.2-220.3,151.4-413.8,350.6-511.5l95.8-47.9h3228.2h3228.2l95.8,47.9c122.6,59.4,237.6,174.3,297,297c67.1,137.9,67.1,379.3,0,517.3c-59.4,122.6-174.3,237.6-297,297l-95.8,47.9l-3199.5,3.8C933.3-2959.9,596.1-2961.8,519.4-2990.5z"/></g></g>
</svg>