<?xml version="1.0" encoding="utf-8"?>
<!-- Svg Vector Icons : http://www.onlinewebfonts.com/icon -->
<!DOCTYPE svg PUBLIC "-//W3C//DTD SVG 1.1//EN" "http://www.w3.org/Graphics/SVG/1.1/DTD/svg11.dtd">
<svg version="1.1" xmlns="http://www.w3.org/2000/svg" xmlns:xlink="http://www.w3.org/1999/xlink" x="0px" y="0px" viewBox="0 0 1000 1000" enable-background="new 0 0 1000 1000" xml:space="preserve">
<metadata> Svg Vector Icons : http://www.onlinewebfonts.com/icon </metadata>
<g><g><path d="M936.7,162.2H65.6c-31.1,0-55.6-24.4-55.6-55.6c0-31.1,24.4-53.3,55.6-53.3h871.1c31.1,0,53.3,22.2,53.3,53.3C990,137.8,967.8,162.2,936.7,162.2z"/><path d="M936.7,315.6c31.1,0,53.3,22.2,53.3,53.3c0,31.1-22.2,55.6-53.3,55.6h-500c-31.1,0-55.6-24.4-55.6-55.6c0-31.1,24.4-53.3,55.6-53.3H936.7z"/><path d="M936.7,575.6c31.1,0,53.3,24.4,53.3,55.6s-22.2,53.3-53.3,53.3H287.8c-31.1,0-53.3-22.2-53.3-53.3s22.2-55.6,53.3-55.6H936.7z"/><path d="M932.2,837.8c31.1,0,55.6,22.2,55.6,53.3s-24.4,55.6-55.6,55.6H107.8c-31.1,0-53.3-24.4-53.3-55.6s22.2-53.3,53.3-53.3H932.2z"/></g><g></g><g></g><g></g><g></g><g></g><g></g><g></g><g></g><g></g><g></g><g></g><g></g><g></g><g></g><g></g></g>
</svg>